HIERARCHY
ROOT root
{
	OFFSET	0	13.1	24.9
	CHANNELS 6  Xposition Yposition Zposition Xrotation Yrotation Zrotation
	JOINT spine_1
	{
		OFFSET	0	9.99999	0
		CHANNELS 3  Xrotation Yrotation Zrotation
		JOINT spine_2
		{
			OFFSET	0	112	-10
			CHANNELS 3  Xrotation Yrotation Zrotation
			JOINT spine_3
			{
				OFFSET	0	206.5	19.3
				CHANNELS 3  Xrotation Yrotation Zrotation
				JOINT spine_4
				{
					OFFSET	0	110.4	14.6
					CHANNELS 3  Xrotation Yrotation Zrotation
					JOINT neck_1
					{
						OFFSET	0	71.8	-50.3
						CHANNELS 3  Xrotation Yrotation Zrotation
						JOINT neck_2
						{
							OFFSET	0	86.2	-25.8
							CHANNELS 3  Xrotation Yrotation Zrotation
							JOINT head_ee
							{
								OFFSET	0	179.8	-8.7
								CHANNELS 3  Xrotation Yrotation Zrotation
								End Site
								{
									OFFSET	1	0	0
								}
							}
						}
					}
					JOINT left_clavicle
					{
						OFFSET	-43.2	22.4	-70.8
						CHANNELS 3  Xrotation Yrotation Zrotation
						JOINT left_shoulder
						{
							OFFSET	-93.9	-5.79999	48.7
							CHANNELS 3  Xrotation Yrotation Zrotation
							JOINT left_elbow
							{
								OFFSET	-291.4	-30.8	15.2
								CHANNELS 3  Xrotation Yrotation Zrotation
								JOINT left_lowarm_twist
								{
									OFFSET	-110.7	-3.89999	13.6
									CHANNELS 3  Xrotation Yrotation Zrotation
									JOINT left_hand
									{
										OFFSET	-110.7	-3.89999	13.6
										CHANNELS 3  Xrotation Yrotation Zrotation
										JOINT left_ee
										{
											OFFSET	-80.8	-5.10001	12.1
											CHANNELS 3  Xrotation Yrotation Zrotation
											End Site
											{
												OFFSET	1	0	0
											}
										}
									}
								}
							}
						}
					}
					JOINT right_clavicle
					{
						OFFSET	43.2	22.4	-70.8
						CHANNELS 3  Xrotation Yrotation Zrotation
						JOINT right_shoulder
						{
							OFFSET	93.9	-5.79999	48.7
							CHANNELS 3  Xrotation Yrotation Zrotation
							JOINT right_elbow
							{
								OFFSET	291.4	-30.8	15.2
								CHANNELS 3  Xrotation Yrotation Zrotation
								JOINT right_lowarm_twist
								{
									OFFSET	110.7	-3.89999	13.6
									CHANNELS 3  Xrotation Yrotation Zrotation
									JOINT right_hand
									{
										OFFSET	110.7	-3.89999	13.6
										CHANNELS 3  Xrotation Yrotation Zrotation
										JOINT right_ee
										{
											OFFSET	80.8	-5.10001	12.1
											CHANNELS 3  Xrotation Yrotation Zrotation
											End Site
											{
												OFFSET	1	0	0
											}
										}
									}
								}
							}
						}
					}
				}
			}
		}
	}
	JOINT left_hip
	{
		OFFSET	-82.8	-127.5	0.300001
		CHANNELS 3  Xrotation Yrotation Zrotation
		JOINT left_knee
		{
			OFFSET	-28.2	-396.7	2.2
			CHANNELS 3  Xrotation Yrotation Zrotation
			JOINT left_ankle
			{
				OFFSET	-11.7	-411.3	35.4
				CHANNELS 3  Xrotation Yrotation Zrotation
				JOINT left_toes
				{
					OFFSET	0	-60	-88.6
					CHANNELS 3  Xrotation Yrotation Zrotation
					JOINT left_foot_ee
					{
						OFFSET	-22.5	-16.5	-42.2
						CHANNELS 3  Xrotation Yrotation Zrotation
						End Site
						{
							OFFSET	1	0	0
						}
					}
				}
			}
		}
	}
	JOINT right_hip
	{
		OFFSET	82.8	-127.5	0.300001
		CHANNELS 3  Xrotation Yrotation Zrotation
		JOINT right_knee
		{
			OFFSET	28.2	-396.7	2.2
			CHANNELS 3  Xrotation Yrotation Zrotation
			JOINT right_ankle
			{
				OFFSET	11.7	-411.3	35.4
				CHANNELS 3  Xrotation Yrotation Zrotation
				JOINT right_toes
				{
					OFFSET	0	-60	-88.6
					CHANNELS 3  Xrotation Yrotation Zrotation
					JOINT right_foot_ee
					{
						OFFSET	22.5	-16.5	-42.2
						CHANNELS 3  Xrotation Yrotation Zrotation
						End Site
						{
							OFFSET	1	0	0
						}
					}
				}
			}
		}
	}
}
MOTION
Frames: 13
Frame Time: 0.02
3322.9 735.524 -533.65 2.57323 71.1636 3.67795 -3.81263 -0.474305 -3.36715 -3.80636 -0.25921 -3.39047 -3.78145 0.680994 -3.33154 -3.79691 0.146611 -3.39719 0.628024 11.9123 6.463 0.867444 15.8225 8.12943 -0.0 0.0 -0.0 11.688 -15.186 23.4795 2.19141 -19.1199 46.6271 3.00628 -56.1076 1.60235 24.9715 0.194214 -3.15883 0.398391 -7.4554 -0.474395 -0.0 0.0 -0.0 3.37828 -6.38462 -6.85729 -17.0564 23.0308 -59.7343 0.499189 13.8898 -0.060806 19.9122 -0.266663 2.51685 -0.0897221 -13.5126 -4.98809 0.0 0.0 0.0 -14.5702 -4.39591 -4.31372 -6.68799 0.217028 1.00288 31.7209 6.53455 -4.06944 15.4427 -0.0 -0.0 -0.0 0.0 -0.0 19.0462 5.85108 -4.70247 4.73993 0.224006 0.692521 -21.2137 -3.33328 -3.20418 -7.30452 0.0 0.0 0.0 0.0 0.0 
3308.6 734.014 -544.48 2.28019 70.69 4.06868 -3.78421 -0.52327 -3.21681 -3.77851 -0.317625 -3.24355 -3.75161 0.582684 -3.20659 -3.76595 0.0692304 -3.25831 1.657 12.0789 7.46652 1.91908 15.0288 9.18128 -0.0 0.0 -0.0 11.473 -16.8505 22.9186 0.0667073 -18.5225 45.7693 2.84097 -54.5934 1.46635 24.2204 0.20855 -3.06396 0.478224 -7.27774 0.140033 -0.0 0.0 -0.0 3.53535 -5.7571 -7.11398 -16.7002 23.1553 -59.9285 0.498529 13.8722 -0.0606479 20.0261 -0.265657 2.53136 -0.212564 -13.8509 -4.35341 0.0 0.0 0.0 -15.2087 -4.17885 -4.41577 -6.86841 0.221253 1.03025 31.1992 6.8293 -4.01532 14.7057 -0.0 -0.0 -0.0 0.0 -0.0 19.6564 6.28144 -5.54122 3.86249 0.178219 0.565729 -20.6752 -3.53221 -3.12148 -6.44199 0.0 0.0 0.0 0.0 0.0 
3294.17 733.416 -556.469 0.596835 70.5121 5.6448 -3.59641 -0.425383 -3.08963 -3.59113 -0.228017 -3.1104 -3.57102 0.622842 -3.05598 -3.58402 0.132636 -3.11592 3.08681 12.2036 6.28743 3.35972 15.9114 7.82148 -0.0 0.0 -0.0 11.7961 -17.3959 23.6276 -0.68758 -17.6052 45.5837 2.55205 -51.6473 1.23517 24.7103 0.199341 -3.12586 0.37802 -6.98306 -0.411153 -0.0 0.0 -0.0 3.75512 -5.84155 -7.51925 -16.3519 23.0284 -60.0855 0.540635 14.993 -0.0711427 20.4703 -0.261457 2.58794 -0.129255 -12.8596 -4.47636 0.0 0.0 0.0 -15.5358 -4.23708 -5.08622 -7.25505 0.230015 1.08893 29.9907 6.51334 -3.88715 14.3715 -0.0 -0.0 -0.0 0.0 -0.0 19.8912 6.65072 -5.99265 2.31133 0.102058 0.339957 -17.4018 -4.44713 -2.62024 -4.99776 0.0 0.0 0.0 0.0 0.0 
3266.49 736.81 -567.226 1.11096 70.2977 4.9829 -3.64823 -0.382124 -3.05042 -3.64308 -0.187337 -3.06853 -3.62555 0.653562 -3.00403 -3.6381 0.171163 -3.06948 5.04425 11.7234 4.36938 5.33548 16.3067 5.5275 -0.0 0.0 -0.0 11.4471 -15.0342 22.9381 -3.36068 -16.5276 47.1804 2.61295 -52.3024 1.28314 25.144 0.190746 -3.18059 0.83398 -11.6763 0.660432 -0.0 0.0 -0.0 3.95521 -4.8778 -7.8485 -14.8499 22.1744 -59.4728 0.503903 14.0159 -0.0619428 21.5845 -0.248994 2.72971 -0.157869 -14.4918 -4.95382 0.0 0.0 0.0 -15.7828 -4.28685 -5.26785 -9.08195 0.266053 1.36695 28.6915 6.61413 -3.74663 14.6692 -0.0 -0.0 -0.0 0.0 -0.0 19.2402 6.50882 -6.02124 -0.525438 -0.0212788 -0.0778264 -13.0607 -3.86632 -1.96125 -4.25669 0.0 0.0 0.0 0.0 0.0 
3246.51 741.407 -578.714 1.98163 69.6068 4.25823 -3.75362 -0.381427 -3.1054 -3.74827 -0.183148 -3.12335 -3.73041 0.678115 -3.05441 -3.74338 0.187464 -3.1231 6.30318 11.6766 4.09163 6.60935 16.2046 5.13882 -0.0 0.0 -0.0 11.4045 -14.0968 22.873 -6.08048 -16.6025 47.6732 2.44761 -50.4778 1.15393 25.191 0.18979 -3.18652 1.04083 -13.1964 1.39583 -0.0 0.0 -0.0 4.2347 -4.55285 -8.35459 -14.2657 21.6064 -59.678 0.478792 13.343 -0.0560041 21.2748 -0.252734 2.69034 -0.451042 -15.0594 -3.36094 0.0 0.0 0.0 -15.6562 -4.41864 -4.79543 -11.8149 0.303371 1.7846 28.2032 7.53256 -3.69377 14.9963 -0.0 -0.0 -0.0 0.0 -0.0 18.5421 6.30711 -6.40242 -2.64704 -0.0999018 -0.393914 -11.2899 -3.29329 -1.69347 -4.52083 0.0 0.0 0.0 0.0 0.0 
3224.43 745.526 -585.78 1.62405 68.5199 4.73699 -3.78846 -0.416241 -3.17225 -3.78288 -0.213644 -3.19228 -3.76262 0.669382 -3.12867 -3.77624 0.16713 -3.19505 7.72705 11.4925 3.29173 8.06199 16.3139 4.12223 -0.0 0.0 -0.0 11.5154 -13.372 23.1439 -8.31794 -16.0965 49.0712 2.29483 -48.6561 1.03762 25.2073 0.189457 -3.18858 1.23311 -14.8749 1.95439 -0.0 0.0 -0.0 4.52879 -3.99273 -8.88507 -13.1741 21.1796 -58.6143 0.482326 13.438 -0.0568227 21.6228 -0.248515 2.73459 -0.687749 -15.3571 -2.02025 0.0 0.0 0.0 -15.5489 -4.62871 -4.1651 -13.8779 0.318325 2.10076 26.1558 7.58188 -3.46407 14.7508 -0.0 -0.0 -0.0 0.0 -0.0 18.076 6.28207 -6.88913 -4.21123 -0.150337 -0.628666 -6.66168 -3.26361 -0.992494 -3.29581 0.0 0.0 0.0 0.0 0.0 
3198.12 744.998 -597.751 2.871 67.8972 3.40419 -3.82859 -0.286035 -3.09451 -3.82326 -0.0886408 -3.10642 -3.81084 0.768737 -3.0112 -3.82338 0.283767 -3.09472 8.81803 11.3199 2.20154 9.20631 16.7955 2.75326 -0.0 0.0 -0.0 11.5835 -12.431 23.3175 -9.98853 -15.1522 50.1764 2.0429 -45.3362 0.853302 25.3023 0.187505 -3.20055 1.35626 -15.8603 2.34508 -0.0 0.0 -0.0 4.75112 -3.35188 -9.28446 -12.1544 20.8701 -57.6257 0.499752 13.9049 -0.0609413 22.2684 -0.239978 2.8166 -0.851845 -15.5597 -1.09393 0.0 0.0 0.0 -15.5671 -4.76409 -4.37236 -15.3091 0.322008 2.32032 24.5155 7.7746 -3.27493 14.3897 -0.0 -0.0 -0.0 0.0 -0.0 17.0909 5.83737 -7.05242 -5.81538 -0.195379 -0.870723 -3.93142 -4.4118 -0.581782 -2.25854 0.0 0.0 0.0 0.0 0.0 
3178.03 748.08 -609.498 4.5653 66.225 1.64545 -3.8763 -0.328459 -2.90331 -3.87162 -0.143129 -2.91831 -3.85738 0.666806 -2.84478 -3.86862 0.209358 -2.91432 9.35758 12.2701 2.84532 9.7917 17.6784 3.49905 -0.0 0.0 -0.0 11.5057 -11.107 23.1594 -10.9654 -13.1849 51.4617 1.72645 -40.5346 0.637555 24.9239 0.195159 -3.15282 1.4452 -15.9744 2.89033 -0.0 0.0 -0.0 5.03711 -2.89719 -9.81428 -11.3982 21.8495 -57.1623 0.58389 16.1322 -0.0827482 22.755 -0.232932 2.87837 -0.813997 -14.7438 -0.977302 0.0 0.0 0.0 -14.7144 -5.04935 -4.81499 -18.5464 0.310105 2.81681 23.8596 8.24552 -3.19852 14.3977 -0.0 -0.0 -0.0 0.0 -0.0 16.4063 5.20878 -7.59604 -8.49903 -0.255518 -1.27812 -2.05419 -6.43903 -0.302213 -0.048815 0.0 0.0 0.0 0.0 0.0 
3150.15 748.801 -617.279 7.80468 63.2724 -1.21222 -4.32336 -0.321628 -2.81719 -4.31895 -0.141784 -2.83193 -4.3049 0.665822 -2.75626 -4.31543 0.222349 -2.82675 9.43075 12.465 1.65834 9.96977 19.0715 2.03765 -0.0 0.0 -0.0 11.6277 -9.47324 23.4367 -12.5426 -12.2001 52.9535 1.46412 -35.9505 0.475045 25.1478 0.190668 -3.18107 1.46543 -16.4458 2.81567 -0.0 0.0 -0.0 4.62147 -2.41378 -9.01033 -9.48972 23.7051 -57.3463 0.699551 19.1131 -0.117776 22.8294 -0.231808 2.88781 -0.9913 -15.1968 -0.0757191 0.0 0.0 0.0 -13.8109 -7.31339 -2.96286 -26.4384 0.163922 4.01808 27.1873 12.1839 -3.59804 14.1626 -0.0 -0.0 -0.0 0.0 -0.0 13.7133 5.23618 -7.83361 -10.4559 -0.287305 -1.5767 1.10208 -5.59992 0.161036 0.964145 -0.0 -0.0 0.0 0.0 0.0 
3135.9 750.569 -626.307 8.87123 60.7501 -1.7696 -4.39866 -0.253072 -2.85057 -4.39414 -0.0712456 -2.86088 -4.38353 0.745554 -2.76302 -4.39406 0.300016 -2.84601 9.50974 13.0314 1.37177 10.1343 20.2559 1.66746 -0.0 0.0 -0.0 11.5447 -8.02886 23.2382 -13.5411 -11.3009 54.1782 1.26896 -32.1522 0.365706 24.9783 0.194079 -3.15968 1.43098 -15.5857 2.96784 -0.0 0.0 -0.0 4.50013 0.757128 -8.65521 -7.2757 25.192 -57.3957 0.723469 19.7169 -0.125727 24.1931 -0.209046 3.06051 -1.0447 -15.2175 0.245251 0.0 0.0 0.0 -12.2522 -8.78066 -1.01236 -32.0524 -0.0400009 4.85516 28.8741 14.402 -3.80466 13.9901 -0.0 -0.0 -0.0 0.0 -0.0 11.8355 4.91015 -8.61805 -10.3988 -0.286522 -1.56797 3.69362 -5.08306 0.536237 2.03352 -0.0 -0.0 0.0 0.0 0.0 
3123.09 752.619 -635.732 9.57681 58.8263 -1.9864 -4.61751 -0.167638 -2.84376 -4.61301 0.0135832 -2.84866 -4.60674 0.834112 -2.72394 -4.61688 0.39363 -2.82139 9.16002 14.0459 3.52975 9.71595 20.0526 4.31908 -0.0 0.0 -0.0 10.7514 -4.71828 21.4277 -14.3813 -11.0051 56.5917 1.26984 -32.1702 0.366176 24.0355 0.211887 -3.04058 1.68786 -14.8884 5.00457 -0.0 0.0 -0.0 4.2936 3.01104 -8.13958 -3.33889 23.3955 -59.6407 0.753843 20.4772 -0.136164 26.0419 -0.171636 3.2937 -1.00557 -15.0821 0.0626943 0.0 0.0 0.0 -10.7433 -10.7086 -0.335707 -34.8514 -0.172112 5.26424 25.2725 15.758 -3.40516 13.9585 -0.0 -0.0 -0.0 0.0 -0.0 10.4524 5.01801 -9.13683 -10.2784 -0.284843 -1.54958 3.32263 -1.1352 0.48589 1.42361 -0.0 -0.0 0.0 0.0 0.0 
3103.77 759.737 -646.746 9.74093 58.3658 -1.69922 -4.95505 -0.135151 -2.83817 -4.95057 0.0456488 -2.84101 -4.9457 0.878653 -2.70222 -4.95562 0.44104 -2.80697 7.22094 13.9232 2.53961 7.8084 21.2105 3.26573 -0.0 0.0 -0.0 10.7078 -3.35282 21.2888 -14.8868 -10.685 57.5506 1.07271 -27.9849 0.267313 23.8869 0.214516 -3.02177 1.47011 -14.3399 3.78311 -0.0 0.0 -0.0 4.60242 4.43853 -8.68388 -3.70761 27.2298 -58.2517 0.802672 21.6837 -0.153728 26.912 -0.151428 3.40301 -0.795263 -13.0001 -0.344183 0.0 0.0 0.0 -7.03358 -12.2837 -0.815636 -38.1096 -0.350905 5.73182 29.1075 16.1419 -3.84898 13.3591 -0.0 -0.0 -0.0 0.0 -0.0 9.22131 5.13364 -9.64828 -10.9092 -0.293212 -1.646 4.51681 0.0530617 0.660075 3.39079 -0.0 -0.0 0.0 0.0 0.0 
3084.79 760.665 -658.902 11.3197 60.8432 -3.39147 -4.92115 -0.42178 -3.0576 -4.91598 -0.226456 -3.07822 -4.89449 0.685371 -3.00954 -4.90707 0.201705 -3.07993 7.17615 14.1702 3.49827 7.72378 20.7811 4.41092 -0.0 0.0 -0.0 10.5305 -3.46995 20.9142 -15.2246 -10.5111 59.7315 0.936186 -24.8796 0.20652 24.27 0.207641 -3.07023 1.39119 -13.8976 3.44724 -0.0 0.0 -0.0 4.58369 5.90036 -8.56775 -2.01519 26.4335 -58.3763 0.826818 22.2729 -0.162764 27.1422 -0.145804 3.43188 -1.12526 -14.4558 1.08127 0.0 0.0 0.0 -4.86685 -13.5293 -1.27742 -41.5546 -0.568618 6.21451 31.1338 16.8279 -4.08008 13.0488 -0.0 -0.0 -0.0 0.0 -0.0 7.44976 6.9817 -9.58611 -11.1689 -0.29635 -1.68573 6.31865 -1.04339 0.915917 4.07296 -0.0 -0.0 0.0 0.0 0.0 
